HIERARCHY
ROOT ui
{
	 OFFSET 0 0 0
	 CHANNELS 3 XPosition YPosition Z Position
	 EndSite
	 {
	 OFFSET 0 -1 0
	 }
}
ROOT li
{
	 OFFSET 0 0 0
	 CHANNELS 3 XPosition YPosition Z Position
	 EndSite
	 {
	 OFFSET 0 -1 0
	 }
}
ROOT ul
{
	 OFFSET 0 0 0
	 CHANNELS 3 XPosition YPosition Z Position
	 EndSite
	 {
	 OFFSET 0 -1 0
	 }
}
ROOT ll
{
	 OFFSET 0 0 0
	 CHANNELS 3 XPosition YPosition Z Position
	 EndSite
	 {
	 OFFSET 0 -1 0
	 }
}
ROOT tt
{
	 OFFSET 0 0 0
	 CHANNELS 3 XPosition YPosition Z Position
	 EndSite
	 {
	 OFFSET 0 -1 0
	 }
}
ROOT tb
{
	 OFFSET 0 0 0
	 CHANNELS 3 XPosition YPosition Z Position
	 EndSite
	 {
	 OFFSET 0 -1 0
	 }
}
ROOT td
{
	 OFFSET 0 0 0
	 CHANNELS 3 XPosition YPosition Z Position
	 EndSite
	 {
	 OFFSET 0 -1 0
	 }
}
ROOT v
{
	 OFFSET 0 0 0
	 CHANNELS 3 XPosition YPosition Z Position
	 EndSite
	 {
	 OFFSET 0 -1 0
	 }
}
ROOT bn
{
	 OFFSET 0 0 0
	 CHANNELS 3 XPosition YPosition Z Position
	 EndSite
	 {
	 OFFSET 0 -1 0
	 }
}
MOTION
Frames: 27
Frame Time: 0.002
-0.0013156640529632569	0.0040734481811523435	0		0.4906396484375	-2.542689208984375	0		-1.00284912109375	-0.1534691925048828	0		-0.6959027709960938	-2.594478759765625	0		2.304349853515625	-2.052806640625	0		3.850088623046875	-1.135372802734375	0		4.94799609375	-0.8754221801757812	0		6.0066513671875	0.5013209533691406	0		-0.18779612731933593	5.88009814453125	0		
-0.03184266662597656	0.0017091089487075806	0		0.46099407958984373	-2.542091552734375	0		-1.0803450927734375	-0.15132902526855468	0		-0.7078468627929687	-2.624982421875	0		2.3037314453125	-2.052589599609375	0		3.866379638671875	-1.1504058837890625	0		4.9663203125	-0.8895174560546875	0		6.0011044921875	0.49337225341796875	0		-0.20305108642578126	5.87060205078125	0		
-0.005408572196960449	0.0018479360342025758	0		0.4911064147949219	-2.56001904296875	0		-1.0179503173828126	-0.15447286987304687	0		-0.6729883422851562	-2.668887939453125	0		2.312796875	-2.078424072265625	0		3.86269970703125	-1.155208740234375	0		4.97180712890625	-0.879451171875	0		6.00056884765625	0.49341506958007814	0		-0.202290283203125	5.869	0		
-0.024114776611328125	-0.006540119171142578	0		0.4453077697753906	-2.562177001953125	0		-1.0815482177734375	-0.15036848449707033	0		-0.6701133422851563	-2.704447021484375	0		2.32688916015625	-2.095266357421875	0		3.8758271484375	-1.1741329345703124	0		4.98107568359375	-0.88638232421875	0		6.004890625	0.4844506225585937	0		-0.18449734497070314	5.8762763671875	0		
0.0592457389831543	-0.003873878002166748	0		0.510383056640625	-2.57336328125	0		-1.0052345581054687	-0.15157200622558595	0		-0.6711304321289062	-2.72392822265625	0		2.3321884765625	-2.0859833984375	0		3.89330615234375	-1.15205810546875	0		5.015279296875	-0.8955150756835938	0		6.01225439453125	0.4844980163574219	0		-0.16970973205566406	5.88761962890625	0		
-0.0313487548828125	0.007516357898712158	0		0.47650018310546877	-2.576553955078125	0		-1.0297432861328124	-0.13076339721679686	0		-0.6063287963867188	-2.75901318359375	0		2.343263671875	-2.096718017578125	0		3.8833974609375	-1.1666785888671876	0		5.01960791015625	-0.88831787109375	0		5.9986748046875	0.4937922668457031	0		-0.18517007446289063	5.87729345703125	0		
0.04388055038452148	0.002328476905822754	0		0.52653466796875	-2.586525634765625	0		-1.043576416015625	-0.14102204895019532	0		-0.615488037109375	-2.787343994140625	0		2.34242578125	-2.09629638671875	0		3.882612548828125	-1.1663446044921875	0		5.02390625	-0.8820779418945313	0		5.99782763671875	0.478006591796875	0		-0.18555418395996093	5.87785888671875	0		
-0.0358399543762207	0.004694919109344483	0		0.4656502685546875	-2.586372802734375	0		-1.121304931640625	-0.1386151428222656	0		-0.6206129150390625	-2.810678955078125	0		2.357397216796875	-2.113992431640625	0		3.8946259765625	-1.1850963134765624	0		5.0280029296875	-0.8947948608398437	0		5.9881201171875	0.47835379028320313	0		-0.20107090759277343	5.86760791015625	0		
0.039371971130371095	5.670790076255798E-4	0		0.5105666198730469	-2.6062294921875	0		-1.1220572509765625	-0.13793212890625	0		-0.6237359619140626	-2.833001953125	0		2.34548046875	-2.11938623046875	0		3.9089853515625	-1.1678309326171874	0		5.03940576171875	-0.8755416870117188	0		6.00539013671875	0.4774783935546875	0		-0.18442373657226563	5.87607275390625	0		
-0.02842578887939453	-0.0031152660846710204	0		0.48271295166015626	-2.602334716796875	0		-1.110706787109375	-0.126342529296875	0		-0.5898831787109375	-2.8576650390625	0		2.377598876953125	-2.121182861328125	0		3.893005615234375	-1.1842288818359374	0		5.04754736328125	-0.8822191772460938	0		5.99175341796875	0.4869517822265625	0		-0.18388389587402343	5.875724609375	0		
0.040896240234375	0.00486253023147583	0		0.5347490844726562	-2.6102109375	0		-1.11146728515625	-0.12561104583740235	0		-0.6439241943359375	-2.871427734375	0		2.35776220703125	-2.11843115234375	0		3.92726171875	-1.177091796875	0		5.05771630859375	-0.8858804931640625	0		6.0029423828125	0.47921759033203126	0		-0.18436207580566405	5.8754111328125	0		
-0.03884482574462891	0.007353391170501709	0		0.5278140258789062	-2.615476318359375	0		-1.0342423095703126	-0.1266457061767578	0		-0.578156494140625	-2.90537158203125	0		2.352849609375	-2.12380029296875	0		3.905373046875	-1.18436181640625	0		5.04696826171875	-0.8812975463867188	0		5.99420947265625	0.47972125244140623	0		-0.1989578399658203	5.86525927734375	0		
-0.006731788158416748	-0.0052625398635864256	0		0.5249279174804687	-2.616763671875	0		-1.0350020751953124	-0.12588660430908202	0		-0.5733784790039063	-2.93869091796875	0		2.349974365234375	-2.12616552734375	0		3.90152783203125	-1.187783203125	0		5.0681005859375	-0.8890049438476563	0		5.9934755859375	0.4801802062988281	0		-0.1843614959716797	5.87583056640625	0		
-0.0344693603515625	-0.0032626140117645265	0		0.5240763549804688	-2.61605810546875	0		-1.1137418212890624	-0.12332939910888673	0		-0.5764959716796875	-2.962920654296875	0		2.3789580078125	-2.143834716796875	0		3.9036005859375	-1.2002398681640625	0		5.05433349609375	-0.887332275390625	0		5.99665380859375	0.47163101196289064	0		-0.16778948974609376	5.88539111328125	0		
0.003814394950866699	-9.261509776115418E-4	0		0.498291015625	-2.611090576171875	0		-1.1013795166015625	-0.11269058990478516	0		-0.5765390625	-2.982177490234375	0		2.380177978515625	-2.140207763671875	0		3.944963623046875	-1.1860743408203125	0		5.07166357421875	-0.8779508056640625	0		6.00901708984375	0.4800175476074219	0		-0.16733543395996095	5.884119140625	0		
0.04710432434082031	-6.417329907417298E-4	0		0.5474063110351562	-2.619882568359375	0		-1.035084228515625	-0.11160595703125	0		-0.5595664672851562	-3.003608154296875	0		2.3773720703125	-2.14252880859375	0		3.899210693359375	-1.1860064697265624	0		5.06990234375	-0.880356201171875	0		5.9993349609375	0.48165283203125	0		-0.18394818115234374	5.876021484375	0		
-0.0065524039268493655	0.001629899024963379	0		0.514624755859375	-2.62283935546875	0		-1.11274267578125	-0.10905879974365235	0		-0.5635750122070312	-3.027829833984375	0		2.370551025390625	-2.15080224609375	0		3.920384033203125	-1.197608154296875	0		5.0740791015625	-0.8928067016601563	0		5.9986787109375	0.4822173767089844	0		-0.18346536254882811	5.8757470703125	0		
0.03470801544189453	-0.009075944900512695	0		0.5655963745117187	-2.6556591796875	0		-1.1203182373046876	-0.10323660278320312	0		-0.568538330078125	-3.053050048828125	0		2.377792724609375	-2.15821630859375	0		3.902506103515625	-1.2188021240234375	0		5.06347802734375	-0.888093017578125	0		5.99398388671875	0.4748397216796875	0		-0.19906172180175782	5.86563037109375	0		
-0.014825258255004883	-0.0038593399524688723	0		0.5209376831054687	-2.657504150390625	0		-1.11182568359375	-0.09559286499023438	0		-0.5683820190429687	-3.072333740234375	0		2.377172607421875	-2.157550048828125	0		3.93006787109375	-1.202455078125	0		5.0817724609375	-0.8986683959960937	0		5.9894990234375	0.48347393798828125	0		-0.16930636596679688	5.8870390625	0		
0.04470367431640625	0.00222467303276062	0		0.5753306884765625	-2.660376953125	0		-1.108326171875	-0.09191436004638671	0		-0.5641270141601562	-3.08767333984375	0		2.376607421875	-2.156887451171875	0		3.901355224609375	-1.2175291748046875	0		5.08326171875	-0.8950653686523438	0		6.0018837890625	0.4749437255859375	0		-0.16874952697753906	5.88673291015625	0		
-0.00876951789855957	0.004457462787628174	0		0.5447908935546875	-2.661387939453125	0		-1.1128443603515625	-0.09417134094238282	0		-0.5398195190429688	-3.103235595703125	0		2.3740625	-2.159210205078125	0		3.942820068359375	-1.220324951171875	0		5.08479638671875	-0.8914600219726563	0		5.99649658203125	0.48460443115234375	0		-0.18427224731445313	5.87657763671875	0		
0.0367049560546875	-0.0023452610969543456	0		0.5692611694335937	-2.6659794921875	0		-1.1173372802734376	-0.09744778442382812	0		-0.55243408203125	-3.1154345703125	0		2.367498046875	-2.167499755859375	0		3.91437939453125	-1.2174033203125	0		5.07721484375	-0.9027620239257812	0		5.99196826171875	0.4772590026855469	0		-0.18466596984863282	5.87725048828125	0		
-0.04674823760986328	-0.0038356449604034426	0		0.5647750854492187	-2.669288818359375	0		-1.1227952880859375	-0.09973522186279297	0		-0.4652171630859375	-3.14768408203125	0		2.367056396484375	-2.166863037109375	0		3.907851806640625	-1.22571484375	0		5.076783203125	-0.9021415405273437	0		5.991544921875	0.47787075805664064	0		-0.18406245422363282	5.87689453125	0		
-0.012174406051635743	-0.0045637102127075195	0		0.5861932373046875	-2.683884765625	0		-1.1531358642578124	-0.09178781127929687	0		-0.562639892578125	-3.146047607421875	0		2.368663818359375	-2.16326123046875	0		3.9171943359375	-1.248201171875	0		5.06823193359375	-0.9144461669921875	0		6.0001220703125	0.4773843688964844	0		-0.23747850036621093	5.875076171875	0		
-0.02756242561340332	-0.0017969950437545777	0		0.578912353515625	-2.67020263671875	0		-1.114547607421875	-0.09157611083984375	0		-0.446279541015625	-3.1676416015625	0		2.372311279296875	-2.1566962890625	0		3.926112060546875	-1.2156927490234375	0		5.087943359375	-0.9020520629882812	0		5.9997138671875	0.4779827880859375	0		-0.16875454711914062	5.88697509765625	0		
0.04210787582397461	0.006069962978363037	0		0.5754518432617187	-2.6745810546875	0		-1.1249453125	-0.08988238525390625	0		-0.5236948852539063	-3.167255859375	0		2.369871337890625	-2.15908544921875	0		3.9194248046875	-1.2420396728515626	0		5.08550390625	-0.9044417724609375	0		5.99031591796875	0.4796649475097656	0		-0.18525419616699218	5.8787314453125	0		
-0.010371349334716796	1.75805002450943E-4	0		0.5710059204101563	-2.67797021484375	0		-1.066419921875	-0.09592487335205079	0		-0.45822625732421873	-3.179369384765625	0		2.36540380859375	-2.16447119140625	0		3.919017333984375	-1.241464111328125	0		5.085095703125	-0.9038646850585937	0		5.98990576171875	0.48024432373046877	0		-0.20078739929199219	5.86845458984375	0		
